PathFileType  4	(X/Y/Z) /root/TVB/SAM4Dcap/opencap/output/Data/subject2_Session0/MarkerData/mmpose_0.8/2-cameras/PreAugmentation
DataRate	CameraRate	NumFrames	NumMarkers	Units	OrigDataRate	OrigDataStartFrame	OrigNumFrames
60.0	60.0	18	20	m	60.0	96	152
Frame#	Time	Neck			RShoulder			RElbow			RWrist			LShoulder			LElbow			LWrist			midHip			RHip			RKnee			RAnkle			LHip			LKnee			LAnkle			LBigToe			LSmallToe			LHeel			RBigToe			RSmallToe			RHeel			
		X1	Y1	Z1	X2	Y2	Z2	X3	Y3	Z3	X4	Y4	Z4	X5	Y5	Z5	X6	Y6	Z6	X7	Y7	Z7	X8	Y8	Z8	X9	Y9	Z9	X10	Y10	Z10	X11	Y11	Z11	X12	Y12	Z12	X13	Y13	Z13	X14	Y14	Z14	X15	Y15	Z15	X16	Y16	Z16	X17	Y17	Z17	X18	Y18	Z18	X19	Y19	Z19	X20	Y20	Z20	

96	1.5833333	0.9843000	1.0815800	-0.6080900	0.9958600	1.0772600	-0.4364000	0.9464400	0.7775800	-0.3463000	0.9879100	0.4825500	-0.2678500	0.9818000	1.0853700	-0.7791600	0.9429100	0.7804700	-0.8412800	1.0029100	0.4937400	-0.9067300	1.0123400	0.5537900	-0.5977600	1.0194400	0.5547500	-0.4735700	0.9675500	0.0827900	-0.4486900	0.9045900	-0.4215200	-0.3888000	1.0102800	0.5540900	-0.7220300	0.9536300	0.0685400	-0.7677300	0.9018500	-0.4135200	-0.8162700	1.0527900	-0.4779300	-0.8737000	1.0464400	-0.4747800	-0.8718200	0.8804700	-0.4532500	-0.7987300	1.0819000	-0.4736000	-0.3668200	1.0747700	-0.4726500	-0.3670400	0.8681500	-0.4692300	-0.3960900
97	1.6000000	0.9856000	1.0814900	-0.6068300	0.9975800	1.0775200	-0.4345600	0.9490400	0.7750100	-0.3457900	0.9873200	0.4829200	-0.2684100	0.9827900	1.0849100	-0.7786300	0.9441600	0.7799800	-0.8413900	0.9993500	0.4935100	-0.9068100	1.0123500	0.5523800	-0.5987300	1.0198000	0.5535400	-0.4744600	0.9678500	0.0812700	-0.4481100	0.9037200	-0.4204400	-0.3902800	1.0099100	0.5525600	-0.7230200	0.9541700	0.0700600	-0.7679800	0.9019600	-0.4130500	-0.8164000	1.0479300	-0.4811500	-0.8775300	1.0415900	-0.4779600	-0.8756000	0.8815300	-0.4511300	-0.7981100	1.0778400	-0.4752800	-0.3669200	1.0705200	-0.4742000	-0.3671300	0.8676900	-0.4676200	-0.3983400
98	1.6166667	0.9844200	1.0814100	-0.6076600	0.9964000	1.0776500	-0.4362400	0.9463100	0.7792000	-0.3490700	0.9862000	0.4837900	-0.2677200	0.9816200	1.0846800	-0.7787300	0.9425100	0.7796200	-0.8405100	1.0007000	0.4923700	-0.9058900	1.0116700	0.5575400	-0.5969000	1.0191500	0.5589500	-0.4727500	0.9670400	0.0818200	-0.4471900	0.9028200	-0.4242200	-0.3884200	1.0091200	0.5573200	-0.7210100	0.9561900	0.0704700	-0.7672300	0.9027700	-0.4141600	-0.8172600	1.0528300	-0.4816900	-0.8728300	1.0466300	-0.4786800	-0.8710200	0.8793200	-0.4549500	-0.8021000	1.0828700	-0.4750700	-0.3679800	1.0760300	-0.4741200	-0.3681300	0.8668300	-0.4707500	-0.3955300
99	1.6333333	0.9847300	1.0813900	-0.6078700	0.9964200	1.0775800	-0.4361500	0.9474300	0.7760800	-0.3465000	0.9878800	0.4820000	-0.2687500	0.9822000	1.0846700	-0.7792300	0.9424600	0.7781100	-0.8401900	1.0017000	0.4924800	-0.9072400	1.0115300	0.5525300	-0.5972000	1.0179600	0.5543200	-0.4729900	0.9665400	0.0794000	-0.4463800	0.9021500	-0.4232700	-0.3867500	1.0100900	0.5521600	-0.7214000	0.9542400	0.0690500	-0.7673000	0.9036500	-0.4146500	-0.8172300	1.0540000	-0.4813900	-0.8714400	1.0471700	-0.4785200	-0.8699800	0.8800400	-0.4545000	-0.8005200	1.0808400	-0.4731200	-0.3686900	1.0738100	-0.4721100	-0.3687400	0.8647800	-0.4702500	-0.3936300
100	1.6500000	0.9842000	1.0811400	-0.6079100	0.9966100	1.0773400	-0.4359600	0.9477900	0.7769900	-0.3469100	0.9875500	0.4823500	-0.2679400	0.9810400	1.0843100	-0.7793200	0.9410400	0.7758500	-0.8406000	1.0008400	0.4922900	-0.9073900	1.0109300	0.5512900	-0.5962300	1.0185000	0.5534800	-0.4714700	0.9689700	0.0795500	-0.4477800	0.9038200	-0.4238300	-0.3883300	1.0081600	0.5506500	-0.7209700	0.9519400	0.0685600	-0.7671600	0.9034400	-0.4136600	-0.8165600	1.0481500	-0.4814100	-0.8774000	1.0423800	-0.4781100	-0.8750100	0.8818700	-0.4535200	-0.7983900	1.0837700	-0.4733400	-0.3693900	1.0767100	-0.4724300	-0.3695000	0.8664100	-0.4701200	-0.3938400
101	1.6666667	0.9847900	1.0814500	-0.6070100	0.9975800	1.0777700	-0.4352800	0.9484700	0.7763400	-0.3468600	0.9875400	0.4814100	-0.2665700	0.9811200	1.0845800	-0.7783400	0.9422400	0.7776500	-0.8420600	1.0028000	0.4928100	-0.9091600	1.0102000	0.5544700	-0.5960300	1.0183900	0.5558100	-0.4720500	0.9681100	0.0799400	-0.4464500	0.9034500	-0.4222000	-0.3883200	1.0071900	0.5542200	-0.7200500	0.9522000	0.0680500	-0.7666300	0.9020400	-0.4143500	-0.8159600	1.0584400	-0.4788300	-0.8698500	1.0517000	-0.4757700	-0.8683900	0.8789600	-0.4551400	-0.7983000	1.0824600	-0.4710600	-0.3689100	1.0756200	-0.4701200	-0.3689600	0.8664800	-0.4686800	-0.3956200
102	1.6833333	0.9852900	1.0813400	-0.6073700	0.9977500	1.0776200	-0.4352700	0.9456100	0.7786400	-0.3480900	0.9859400	0.4822300	-0.2678800	0.9819100	1.0845800	-0.7790300	0.9423900	0.7795700	-0.8419600	0.9967300	0.4966700	-0.9079100	1.0106100	0.5546300	-0.5961700	1.0192100	0.5565400	-0.4707200	0.9681700	0.0799100	-0.4457100	0.9027700	-0.4265100	-0.3886100	1.0071800	0.5541000	-0.7216400	0.9545800	0.0678900	-0.7702900	0.9043400	-0.4151300	-0.8175300	1.0706200	-0.4781800	-0.8625600	1.0635500	-0.4758500	-0.8619100	0.8804700	-0.4570300	-0.8011000	1.0851800	-0.4734300	-0.3699500	1.0782900	-0.4725200	-0.3700100	0.8660400	-0.4728800	-0.3938800
103	1.7000000	0.9847200	1.0813100	-0.6073200	0.9974200	1.0768400	-0.4352300	0.9457000	0.7776100	-0.3479800	0.9860600	0.4821800	-0.2685300	0.9813500	1.0853000	-0.7790900	0.9426300	0.7796600	-0.8418900	0.9993700	0.4948100	-0.9079700	1.0111600	0.5555800	-0.5974700	1.0192800	0.5569700	-0.4726100	0.9662000	0.0798700	-0.4463400	0.9039200	-0.4249400	-0.3899700	1.0085600	0.5551600	-0.7223900	0.9555500	0.0688800	-0.7696300	0.9047100	-0.4138200	-0.8165200	1.0692100	-0.4778900	-0.8623100	1.0617000	-0.4757000	-0.8619100	0.8819000	-0.4561200	-0.8004300	1.0857500	-0.4730000	-0.3694000	1.0788700	-0.4720900	-0.3694900	0.8672100	-0.4724200	-0.3949900
104	1.7166667	0.9850200	1.0820600	-0.6080700	0.9973300	1.0784300	-0.4367000	0.9468700	0.7785000	-0.3490400	0.9877500	0.4820000	-0.2675400	0.9816800	1.0851900	-0.7791000	0.9399000	0.7804900	-0.8420800	0.9974800	0.4928900	-0.9078900	1.0116300	0.5506600	-0.5986300	1.0198700	0.5522600	-0.4743500	0.9661900	0.0796500	-0.4475900	0.9032200	-0.4273700	-0.3896000	1.0089200	0.5502200	-0.7229300	0.9552400	0.0684400	-0.7690600	0.9044000	-0.4142100	-0.8164500	1.0777000	-0.4771100	-0.8601700	1.0728700	-0.4742600	-0.8582400	0.8811000	-0.4550400	-0.7979100	1.0823000	-0.4731300	-0.3678900	1.0753200	-0.4722900	-0.3679900	0.8666100	-0.4738100	-0.3958900
105	1.7333333	0.9849100	1.0820700	-0.6080600	0.9969700	1.0789900	-0.4365400	0.9444800	0.7751300	-0.3488400	0.9875200	0.4823900	-0.2670400	0.9820100	1.0846100	-0.7791700	0.9428900	0.7815200	-0.8418100	0.9994000	0.4968500	-0.9077400	1.0125900	0.5563600	-0.5983400	1.0200900	0.5569700	-0.4733100	0.9650200	0.0772000	-0.4450900	0.9026900	-0.4221100	-0.3886700	1.0106700	0.5561700	-0.7233300	0.9556000	0.0664500	-0.7698500	0.9033500	-0.4132600	-0.8164900	1.0622900	-0.4790700	-0.8664600	1.0554200	-0.4763700	-0.8654600	0.8814900	-0.4542600	-0.7988500	1.0823300	-0.4710100	-0.3676900	1.0755400	-0.4698800	-0.3677900	0.8660700	-0.4686800	-0.3957000
106	1.7500000	0.9855900	1.0819400	-0.6071900	0.9976600	1.0782900	-0.4352500	0.9465100	0.7755200	-0.3468900	0.9855100	0.4819900	-0.2682500	0.9825300	1.0850900	-0.7786400	0.9430000	0.7849500	-0.8413100	0.9992200	0.4998900	-0.9077400	1.0111000	0.5535600	-0.5980700	1.0188400	0.5557500	-0.4732900	0.9653900	0.0798500	-0.4454400	0.9037800	-0.4234500	-0.3900500	1.0081100	0.5534700	-0.7228500	0.9507200	0.0638800	-0.7693800	0.9006200	-0.4169100	-0.8167800	1.0751300	-0.4760200	-0.8578600	1.0691600	-0.4736700	-0.8568000	0.8765100	-0.4572800	-0.8016700	1.0820500	-0.4736600	-0.3683100	1.0751400	-0.4727600	-0.3684600	0.8680200	-0.4705800	-0.3974400
107	1.7666667	0.9844200	1.0823200	-0.6078000	0.9967100	1.0785500	-0.4371000	0.9461100	0.7776700	-0.3483000	0.9856200	0.4826100	-0.2680100	0.9810200	1.0856600	-0.7783000	0.9382400	0.7827200	-0.8416200	0.9959800	0.4965200	-0.9074300	1.0101300	0.5556400	-0.5981600	1.0192300	0.5570900	-0.4740200	0.9660400	0.0797900	-0.4469000	0.9043900	-0.4231400	-0.3908100	1.0061900	0.5555300	-0.7223500	0.9535700	0.0672200	-0.7702800	0.9033600	-0.4142300	-0.8170800	1.0717500	-0.4767900	-0.8607100	1.0657500	-0.4746000	-0.8593800	0.8798500	-0.4565800	-0.8010500	1.0830500	-0.4737200	-0.3680800	1.0758400	-0.4728700	-0.3681200	0.8686400	-0.4699500	-0.3968200
108	1.7833333	0.9848000	1.0821300	-0.6076900	0.9978300	1.0781800	-0.4353700	0.9466000	0.7742900	-0.3464500	0.9884200	0.4807300	-0.2665200	0.9809900	1.0855000	-0.7794100	0.9383000	0.7784000	-0.8418700	0.9947400	0.4960100	-0.9081000	1.0101900	0.5534600	-0.5992100	1.0186900	0.5557000	-0.4750900	0.9660200	0.0788500	-0.4464500	0.9036200	-0.4238200	-0.3895500	1.0068100	0.5525000	-0.7233700	0.9561000	0.0687600	-0.7704400	0.9031100	-0.4160000	-0.8166300	1.0758200	-0.4747300	-0.8570400	1.0701400	-0.4723500	-0.8555400	0.8793200	-0.4581900	-0.8016600	1.0820100	-0.4728400	-0.3683300	1.0751000	-0.4718300	-0.3684200	0.8674200	-0.4705700	-0.3961400
109	1.8000000	0.9847300	1.0821800	-0.6076700	0.9980600	1.0782300	-0.4353500	0.9468000	0.7748100	-0.3461100	0.9887400	0.4809200	-0.2670200	0.9805900	1.0855800	-0.7793900	0.9392400	0.7789700	-0.8414500	0.9945500	0.4954300	-0.9082100	1.0119800	0.5494100	-0.5987700	1.0197200	0.5512100	-0.4737500	0.9664700	0.0781000	-0.4460700	0.9036800	-0.4280300	-0.3905100	1.0097600	0.5484100	-0.7236800	0.9564000	0.0688200	-0.7707800	0.9028800	-0.4149700	-0.8182400	1.0774100	-0.4743500	-0.8567200	1.0689000	-0.4727500	-0.8573400	0.8772900	-0.4567400	-0.8032700	1.0843900	-0.4726900	-0.3678400	1.0777300	-0.4718300	-0.3680600	0.8666200	-0.4744000	-0.3970700
110	1.8166667	0.9856700	1.0820800	-0.6076300	0.9986200	1.0783900	-0.4365100	0.9479400	0.7782100	-0.3470700	0.9871600	0.4832000	-0.2673600	0.9817600	1.0853200	-0.7785300	0.9399900	0.7802800	-0.8411400	0.9981800	0.4923500	-0.9089600	1.0098600	0.5544800	-0.5968200	1.0188500	0.5557200	-0.4721900	0.9672900	0.0788200	-0.4461500	0.9024800	-0.4262400	-0.3898000	1.0065700	0.5537200	-0.7213500	0.9541300	0.0681100	-0.7693900	0.9042100	-0.4123000	-0.8161800	1.0579700	-0.4796000	-0.8701500	1.0524900	-0.4765300	-0.8681000	0.8822700	-0.4527900	-0.7976900	1.0812200	-0.4742000	-0.3683800	1.0742700	-0.4733100	-0.3684900	0.8663200	-0.4727700	-0.3968000
111	1.8333333	0.9850700	1.0815500	-0.6086300	0.9971600	1.0778800	-0.4370300	0.9473200	0.7785800	-0.3471500	0.9857900	0.4826600	-0.2688200	0.9822000	1.0846600	-0.7797700	0.9405300	0.7805600	-0.8409800	0.9965200	0.4988400	-0.9071400	1.0109300	0.5552700	-0.5971500	1.0189300	0.5564200	-0.4725500	0.9663400	0.0806800	-0.4469200	0.9039600	-0.4225600	-0.3899700	1.0084900	0.5547900	-0.7217800	0.9543300	0.0673500	-0.7705300	0.9027300	-0.4165500	-0.8170200	1.0743100	-0.4744400	-0.8573400	1.0680400	-0.4723100	-0.8563000	0.8772300	-0.4592500	-0.8031100	1.0814500	-0.4725300	-0.3670800	1.0743500	-0.4714100	-0.3671600	0.8681500	-0.4681900	-0.3959400
112	1.8500000	0.9851000	1.0814600	-0.6083200	0.9975700	1.0774600	-0.4366900	0.9452500	0.7764200	-0.3478200	0.9875500	0.4817900	-0.2678900	0.9815700	1.0848800	-0.7794200	0.9382100	0.7793600	-0.8410500	0.9958100	0.4917200	-0.9076200	1.0113100	0.5526900	-0.5984900	1.0194800	0.5538900	-0.4740800	0.9653900	0.0778900	-0.4469000	0.9044000	-0.4255500	-0.3897000	1.0084100	0.5528000	-0.7229800	0.9548300	0.0680300	-0.7695800	0.9039400	-0.4115100	-0.8163400	1.0485200	-0.4807200	-0.8750600	1.0427100	-0.4774900	-0.8730800	0.8851100	-0.4499800	-0.7965700	1.0829700	-0.4735900	-0.3684400	1.0756700	-0.4728200	-0.3683400	0.8671100	-0.4719500	-0.3964300
113	1.8666667	0.9852100	1.0811800	-0.6079600	0.9973100	1.0773500	-0.4360200	0.9468000	0.7775500	-0.3467200	0.9851300	0.4825400	-0.2678700	0.9820900	1.0845100	-0.7794600	0.9369600	0.7811900	-0.8422100	0.9939000	0.4943000	-0.9091600	1.0111100	0.5544900	-0.5974900	1.0197400	0.5564900	-0.4727300	0.9688600	0.0801400	-0.4465400	0.9054100	-0.4249300	-0.3903500	1.0075900	0.5538400	-0.7222300	0.9525900	0.0662900	-0.7698600	0.9018400	-0.4140200	-0.8180300	1.0730000	-0.4761300	-0.8591600	1.0668700	-0.4738000	-0.8583500	0.8775200	-0.4556500	-0.8020100	1.0831400	-0.4736400	-0.3670800	1.0762400	-0.4726800	-0.3671700	0.8693800	-0.4711100	-0.3969800
